<svg width="0" height="0" class="hidden">
  <symbol fill="none" xmlns="http://www.w3.org/2000/svg" viewBox="0 0 28 29" id="label">
    <path d="M11.0557 22.5792L22.1114 16.1158L27.6393 12.8842V0L22.1114 3.23167L11.0557 9.65249V9.69501L0 16.1158V29L11.0557 22.5792Z" fill="#1F65D9"></path>
  </symbol>
  <symbol opacity="0.024" fill="white" version="1.1" id="logo" xmlns="http://www.w3.org/2000/svg" xmlns:xlink="http://www.w3.org/1999/xlink" x="0px" y="0px" xml:space="preserve" viewBox="0 0 506.2 555.8">
    <g>
      <polygon points="396.7,305.9 396.7,361.9 396.6,361.9 348.8,389.9 301,417.9 277.1,431.9 253.1,445.9 229.2,431.9 
		205.3,417.9 157.5,389.9 109.6,361.9 109.6,305.9 157.5,278 157.5,333.9 205.3,361.9 229.2,375.9 253.1,389.9 277.1,375.9 
		301,361.9 348.8,333.9 348.8,277.9 396.6,305.9 	"></polygon>
      <polygon points="396.7,193.9 396.7,249.9 396.6,249.9 348.8,221.9 301,193.9 277.1,179.9 277.1,319.9 253.1,333.9 
		229.2,319.9 229.2,180 205.3,193.9 157.5,221.9 157.5,222 109.6,249.9 109.6,193.9 157.5,166 157.5,166 205.3,138 229.2,124 
		253.1,110 277.1,124 301,138 348.8,166 396.6,193.9 	"></polygon>
    </g>
  </symbol>
  <symbol version="1.1" xmlns="http://www.w3.org/2000/svg" xmlns:xlink="http://www.w3.org/1999/xlink" x="0px" y="0px" enable-background="new 0 0 110 110" xml:space="preserve" viewBox="0 0 110 110" id="main-icon-1">
    <g id="Layer_2" display="none">
      <rect x="-330.6" y="-217.2" display="inline" fill="#233148" width="1139.2" height="843.8"></rect>
    </g>
    <g id="Layer_1">
      <g id="icon_01">
        <path fill="none" stroke="#1F65D9" stroke-width="6" stroke-miterlimit="10" d="M102.6,75.9c-2.3,5.2-5.5,10-9.3,14.2"></path>
        <path fill="none" stroke="#1F65D9" stroke-width="6" stroke-miterlimit="10" d="M43.8,4.2C47.4,3.4,51.2,3,55,3
			c28.7,0,52,23.3,52,52c0,2.6-0.2,5.2-0.6,7.6"></path>
        <path fill="none" stroke="#1F65D9" stroke-width="6" stroke-miterlimit="10" d="M11.3,26.7c1.1-1.7,2.3-3.3,3.6-4.9"></path>
        <path fill="none" stroke="#1F65D9" stroke-width="6" stroke-miterlimit="10" d="M70.2,104.7c-4.8,1.5-9.9,2.3-15.2,2.3
			C26.3,107,3,83.7,3,55c0-5.4,0.8-10.6,2.3-15.5"></path>
        <path fill="none" stroke="#1F65D9" stroke-width="6" stroke-miterlimit="10" d="M17.7,55c0-20.6,16.7-37.3,37.3-37.3
			c6.8,0,13.2,1.8,18.7,5"></path>
        <path fill="none" stroke="#1F65D9" stroke-width="6" stroke-miterlimit="10" d="M29.1,81.9c-1.9-1.8-3.6-3.8-5-6"></path>
        <path fill="none" stroke="#1F65D9" stroke-width="6" stroke-miterlimit="10" d="M92.3,55c0,20.6-16.7,37.3-37.3,37.3
			c-6.8,0-13.2-1.8-18.7-5"></path>
        <path fill="none" stroke="#1F65D9" stroke-width="6" stroke-miterlimit="10" d="M80.9,28.1c1.9,1.8,3.6,3.8,5,6"></path>
        <polygon fill="none" stroke="#1F65D9" stroke-width="6" stroke-miterlimit="10" points="71.5,45.4 55,35.8 38.5,45.4 38.5,64.6 
			55,74.2 71.5,64.6 		"></polygon>
      </g>
    </g>
  </symbol>
  <symbol version="1.1" xmlns="http://www.w3.org/2000/svg" xmlns:xlink="http://www.w3.org/1999/xlink" x="0px" y="0px" enable-background="new 0 0 108.5 110.1" xml:space="preserve" viewBox="0 0 108.5 110.1" id="main-icon-2">
    <g id="Layer_2" display="none">
      <rect x="-686.2" y="-217.1" display="inline" fill="#233148" width="1139.2" height="843.8"></rect>
    </g>
    <g id="Layer_1">
      <g id="icon_02">
        <polyline fill="none" stroke="#1F65D9" stroke-width="6" stroke-miterlimit="10" points="3,91.3 3,66.1 25.4,66.1 		"></polyline>
        <polyline fill="none" stroke="#1F65D9" stroke-width="6" stroke-miterlimit="10" points="25.4,74.7 25.4,107.1 3,107.1 		"></polyline>
        <polyline fill="none" stroke="#1F65D9" stroke-width="6" stroke-miterlimit="10" points="42.5,68.5 42.5,3 64.9,3 64.9,107.1 
			42.5,107.1 		"></polyline>
        <line fill="none" stroke="#1F65D9" stroke-width="6" stroke-miterlimit="10" x1="42.5" y1="81.3" x2="42.5" y2="74.7"></line>
        <polyline fill="none" stroke="#1F65D9" stroke-width="6" stroke-miterlimit="10" points="105.5,90 105.5,107.1 83.1,107.1 
			83.1,98.6 		"></polyline>
        <polyline fill="none" stroke="#1F65D9" stroke-width="6" stroke-miterlimit="10" points="83.1,91.3 83.1,39.3 105.5,39.3 
			105.5,76.5 		"></polyline>
      </g>
    </g>
  </symbol>
  <symbol version="1.1" xmlns="http://www.w3.org/2000/svg" xmlns:xlink="http://www.w3.org/1999/xlink" x="0px" y="0px" enable-background="new 0 0 109.6 107" xml:space="preserve" viewBox="0 0 109.6 107" id="main-icon-3">
    <g id="Layer_2" display="none">
      <rect x="-330.1" y="-508.5" display="inline" fill="#233148" width="1139.2" height="843.8"></rect>
    </g>
    <g id="Layer_1">
      <g id="icon_03">
        <path fill="none" stroke="#1F65D9" stroke-width="6" stroke-miterlimit="10" d="M30.3,61.3c-4.9-13.4,2-28.3,15.5-33.3
			c4.4-1.6,9-2,13.4-1.2"></path>
        <path fill="none" stroke="#1F65D9" stroke-width="6" stroke-miterlimit="10" d="M44.2,76.1c-1.7-0.7-3.2-1.6-4.7-2.7"></path>
        <path fill="none" stroke="#1F65D9" stroke-width="6" stroke-miterlimit="10" d="M79,43.5c4.9,13.4-2,28.3-15.5,33.3
			c-4.4,1.6-9,2-13.4,1.2"></path>
        <path fill="none" stroke="#1F65D9" stroke-width="6" stroke-miterlimit="10" d="M65.1,28.7c1.7,0.7,3.2,1.6,4.7,2.7"></path>
        <polygon fill="none" stroke="#1F65D9" stroke-width="6" stroke-miterlimit="10" points="88,12.4 36.7,3.3 3.4,43.3 21.4,92.4 
			72.6,101.6 105.9,61.5 		"></polygon>
        <line fill="none" stroke="#1F65D9" stroke-width="6" stroke-miterlimit="10" x1="73.2" y1="70.5" x2="107.5" y2="104.9"></line>
      </g>
    </g>
  </symbol>
  <symbol version="1.1" xmlns="http://www.w3.org/2000/svg" xmlns:xlink="http://www.w3.org/1999/xlink" x="0px" y="0px" enable-background="new 0 0 109.3 110.1" xml:space="preserve" viewBox="0 0 109.3 110.1" id="main-icon-4">
    <g id="Layer_2" display="none">
      <rect x="-685.8" y="-508.5" display="inline" fill="#233148" width="1139.2" height="843.8"></rect>
    </g>
    <g id="Layer_1">
      <g id="icon_04">
        <path fill="none" stroke="#1F65D9" stroke-width="6" stroke-miterlimit="10" d="M82.2,67.8c-8.2,15.8-27.7,21.9-43.5,13.7
			c-5.2-2.7-9.4-6.7-12.3-11.3"></path>
        <line fill="none" stroke="#1F65D9" stroke-width="6" stroke-miterlimit="10" x1="37.7" y1="37.4" x2="37.7" y2="44"></line>
        <line fill="none" stroke="#1F65D9" stroke-width="6" stroke-miterlimit="10" x1="67.6" y1="37.4" x2="67.6" y2="44"></line>
        <path fill="none" stroke="#1F65D9" stroke-width="6" stroke-miterlimit="10" d="M19,93.3c-4.5-4.1-8.2-9-11-14.4"></path>
        <path fill="none" stroke="#1F65D9" stroke-width="6" stroke-miterlimit="10" d="M106.3,56.2c-0.6,28.2-23.7,50.9-52,50.9
			c-7.4,0-14.5-1.6-20.9-4.4"></path>
        <path fill="none" stroke="#1F65D9" stroke-width="6" stroke-miterlimit="10" d="M92.2,19.4c1.6,1.7,3.1,3.5,4.4,5.4"></path>
        <path fill="none" stroke="#1F65D9" stroke-width="6" stroke-miterlimit="10" d="M74.5,7.1c2.7,1.1,5.2,2.5,7.6,4"></path>
        <path fill="none" stroke="#1F65D9" stroke-width="6" stroke-miterlimit="10" d="M3,46.3C7.1,21.7,28.5,3,54.3,3
			c4.6,0,9.1,0.6,13.3,1.7"></path>
      </g>
    </g>
  </symbol>
  <symbol opacity="0.1" fill="none" xmlns="http://www.w3.org/2000/svg" viewBox="0 0 197 229" id="secondaryIcon">
    <path d="M139.667 0H29.8917V100.703H44.6658V14.7705H124.892V71.1618H181.355V214.287H124.892V229H196.071V56.4485V56.3913V56.4485L139.667 0ZM139.609 56.3913V20.839L175.227 56.3913H139.609ZM0 114.5V229H110.118V114.5H0ZM95.3443 210.222L68.0295 182.914L49.0179 201.921L37.5078 190.413L14.6595 213.256V129.27H95.2871V210.222H95.3443ZM81.83 161.96C81.83 166.311 78.2797 169.861 73.9276 169.861C69.5756 169.861 66.0252 166.311 66.0252 161.96C66.0252 157.609 69.5756 154.06 73.9276 154.06C78.2797 154.117 81.83 157.609 81.83 161.96Z" fill="white"></path>
  </symbol>
</svg>